# This file uses centimeters as units for non-parametric coordinates.

mtllib L_down.mtl
g default
v -1.019448 -0.050000 -0.020059
v -0.019448 -0.050000 -0.020059
v 0.980552 -0.050000 -0.020059
v 1.980552 -0.050000 -0.020059
v 2.980552 -0.050000 -0.020059
v -1.019448 0.000000 -0.020059
v -0.019448 0.000000 -0.020059
v 0.980552 0.000000 -0.020059
v 1.980552 0.000000 -0.020059
v 2.980552 0.000000 -0.020059
v -1.019448 0.050000 -0.020059
v -0.019448 0.050000 -0.020059
v 0.980552 0.050000 -0.020059
v 1.980552 0.050000 -0.020059
v 2.980552 0.050000 -0.020059
v -1.019448 0.050000 -1.020059
v -0.019448 0.050000 -1.020059
v 0.980552 0.050000 -1.020059
v 1.980552 0.050000 -1.020059
v 2.980552 0.050000 -1.020059
v -1.019448 0.000000 -1.020059
v -0.019448 0.000000 -1.020059
v 0.980552 0.000000 -1.020059
v 1.980552 0.000000 -1.020059
v 2.980552 0.000000 -1.020059
v -1.019448 -0.050000 -1.020059
v -0.019448 -0.050000 -1.020059
v 0.980552 -0.050000 -1.020059
v 1.980552 -0.050000 -1.020059
v 2.980552 -0.050000 -1.020059
v -0.019448 0.050000 -0.892990
v -0.019448 0.000000 -1.020059
v -1.019448 0.000000 -1.020059
v -1.019448 -0.050005 0.979941
v -0.019448 -0.050005 0.979941
v -0.019448 0.000000 0.979941
v -1.019448 0.000000 0.979941
v -0.019448 0.050005 0.979941
v -1.019448 0.050005 0.979941
vt 0.142342 0.583115
vt 0.377609 0.583115
vt 0.377609 0.648939
vt 0.142342 0.648939
vt 0.377609 0.714763
vt 0.142342 0.714763
vt 0.573663 0.627396
vt 0.705299 0.625691
vt 0.705608 0.649488
vt 0.573971 0.651193
vt 0.837244 0.647783
vt 0.836936 0.623984
vt 0.705916 0.673286
vt 0.574279 0.674991
vt 0.573971 0.651193
vt 0.837553 0.671583
vt 0.969677 0.715363
vt 0.734410 0.715369
vt 0.734410 0.649539
vt 0.969677 0.649539
vt 0.734410 0.583709
vt 0.969677 0.583715
vt 0.029236 0.159977
vt 0.166050 0.159977
vt 0.166050 0.278901
vt 0.166050 0.296212
vt 0.029236 0.296212
vt 0.166050 0.023741
vt 0.029236 0.023741
vt 0.302863 0.159977
vt 0.302863 0.296212
vt 0.439677 0.159977
vt 0.439677 0.296212
vt 0.576490 0.159977
vt 0.576490 0.296212
vt 0.029965 0.316862
vt 0.165950 0.316862
vt 0.165950 0.456810
vt 0.029965 0.456810
vt 0.301935 0.316862
vt 0.301935 0.456810
vt 0.029965 0.596757
vt 0.165950 0.596757
vt 0.437920 0.316862
vt 0.437920 0.456810
vt 0.573905 0.316862
vt 0.573905 0.456810
vt 0.874234 0.581532
vt 0.933051 0.581532
vt 0.933051 0.647362
vt 0.874234 0.647362
vt 0.933051 0.713192
vt 0.874234 0.713192
vt 0.503964 0.583709
vt 0.562781 0.583709
vt 0.562781 0.649533
vt 0.503964 0.649533
vt 0.621598 0.583709
vt 0.621598 0.649533
vt 0.562781 0.715357
vt 0.503964 0.715357
vt 0.680415 0.583709
vt 0.680415 0.649533
vt 0.621598 0.715357
vt 0.680415 0.715357
vt 0.755485 0.242979
vt 0.814301 0.242979
vt 0.814301 0.308803
vt 0.755485 0.308803
vt 0.755485 0.308803
vt 0.873118 0.242979
vt 0.873118 0.308803
vt 0.814301 0.374627
vt 0.755485 0.374627
vt 0.696668 0.242979
vt 0.696668 0.308803
vt 0.931935 0.242979
vt 0.931935 0.308803
vt 0.873118 0.374627
vt 0.696668 0.374627
vt 0.931935 0.374627
vn 0.000000 -0.000005 1.000000
vn 0.000000 -0.000005 1.000000
vn 0.000000 0.000000 1.000000
vn 0.000000 0.000000 1.000000
vn 0.000000 -0.000005 1.000000
vn 0.000000 -0.000004 1.000000
vn 0.000000 0.000000 1.000000
vn 0.000000 0.000000 1.000000
vn 0.000000 -0.000004 1.000000
vn 0.000000 0.000000 1.000000
vn 0.000000 0.000001 1.000000
vn 0.000000 0.000000 1.000000
vn 0.000000 0.000000 1.000000
vn -0.000000 0.000002 1.000000
vn -0.000000 0.000001 1.000000
vn 0.000000 0.000001 1.000000
vn 0.000000 0.000000 1.000000
vn 0.000000 0.000000 1.000000
vn 0.000000 0.000005 1.000000
vn 0.000000 0.000005 1.000000
vn 0.000000 0.000000 1.000000
vn 0.000000 0.000000 1.000000
vn 0.000000 0.000004 1.000000
vn 0.000000 0.000005 1.000000
vn 0.000000 0.000000 1.000000
vn 0.000000 0.000001 1.000000
vn 0.000000 0.000001 1.000000
vn 0.000000 0.000004 1.000000
vn 0.000000 0.000001 1.000000
vn -0.000000 0.000001 1.000000
vn 0.000000 0.000000 1.000000
vn 0.000000 0.000001 1.000000
vn 0.000000 1.000000 0.000000
vn 0.000000 1.000000 0.000000
vn 0.000000 1.000000 0.000000
vn 0.000000 1.000000 0.000000
vn 0.000000 1.000000 0.000000
vn 0.000000 1.000000 0.000000
vn 0.000000 1.000000 0.000000
vn 0.000000 1.000000 0.000000
vn 0.000000 1.000000 0.000000
vn 0.000000 1.000000 0.000000
vn 0.000000 1.000000 0.000000
vn 0.000000 1.000000 0.000000
vn 0.000000 1.000000 0.000000
vn 0.000000 1.000000 0.000000
vn 0.000000 1.000000 0.000000
vn 0.000000 1.000000 0.000000
vn 0.000000 1.000000 0.000000
vn 0.000000 1.000000 0.000000
vn 0.000000 0.000000 -1.000000
vn 0.000000 0.000000 -1.000000
vn 0.000000 0.000000 -1.000000
vn 0.000000 0.000000 -1.000000
vn 0.000000 0.000000 -1.000000
vn 0.000000 0.000000 -1.000000
vn 0.000000 0.000000 -1.000000
vn 0.000000 0.000000 -1.000000
vn 0.000000 0.000000 -1.000000
vn 0.000000 0.000000 -1.000000
vn 0.000000 0.000000 -1.000000
vn 0.000000 0.000000 -1.000000
vn 0.000000 0.000000 -1.000000
vn 0.000000 0.000000 -1.000000
vn 0.000000 0.000000 -1.000000
vn 0.000000 0.000000 -1.000000
vn 0.000000 0.000000 -1.000000
vn 0.000000 0.000000 -1.000000
vn 0.000000 0.000000 -1.000000
vn 0.000000 0.000000 -1.000000
vn 0.000000 0.000000 -1.000000
vn 0.000000 0.000000 -1.000000
vn 0.000000 0.000000 -1.000000
vn 0.000000 0.000000 -1.000000
vn 0.000000 0.000000 -1.000000
vn 0.000000 -1.000000 0.000000
vn 0.000000 -1.000000 0.000000
vn 0.000000 -1.000000 0.000000
vn 0.000000 -1.000000 0.000000
vn 0.000000 -1.000000 0.000000
vn 0.000000 -1.000000 0.000000
vn 0.000000 -1.000000 0.000000
vn 0.000000 -1.000000 0.000000
vn 0.000000 -1.000000 0.000000
vn 0.000000 -1.000000 0.000000
vn 0.000000 -1.000000 0.000000
vn 0.000000 -1.000000 0.000000
vn 0.000000 -1.000000 0.000000
vn 0.000000 -1.000000 0.000000
vn 0.000000 -1.000000 0.000000
vn 0.000000 -1.000000 0.000000
vn 1.000000 0.000000 0.000000
vn 1.000000 0.000000 0.000000
vn 1.000000 0.000000 0.000000
vn 1.000000 0.000000 0.000000
vn 1.000000 0.000000 0.000000
vn 1.000000 0.000000 0.000000
vn 1.000000 0.000000 0.000000
vn 1.000000 0.000000 0.000000
vn -1.000000 0.000000 0.000000
vn -1.000000 0.000000 0.000000
vn -1.000000 0.000000 0.000000
vn -1.000000 0.000000 0.000000
vn -1.000000 0.000000 0.000000
vn -1.000000 0.000000 0.000000
vn -1.000000 0.000000 0.000000
vn -1.000000 0.000000 0.000000
vn -1.000000 0.000000 0.000000
vn 0.000000 -1.000000 -0.000005
vn 0.000000 -1.000000 -0.000005
vn 0.000000 -1.000000 -0.000005
vn 0.000000 -1.000000 -0.000005
vn 0.000000 1.000000 -0.000005
vn 0.000000 1.000000 -0.000005
vn 0.000000 1.000000 -0.000005
vn 0.000000 1.000000 -0.000005
vn 0.000000 0.000000 -1.000000
vn 0.000000 0.000000 -1.000000
vn 0.000000 0.000000 -1.000000
vn 0.000000 0.000000 -1.000000
vn 0.000000 0.000000 -1.000000
vn 0.000000 0.000000 -1.000000
vn 0.000000 0.000000 -1.000000
vn 0.000000 0.000000 -1.000000
vn -1.000000 0.000000 0.000000
vn -1.000000 0.000000 0.000000
vn -1.000000 0.000000 0.000000
vn -1.000000 0.000000 0.000000
vn -1.000000 0.000000 0.000000
vn -1.000000 0.000000 0.000000
vn -1.000000 0.000000 0.000000
vn -1.000000 0.000000 0.000000
vn 1.000000 0.000000 0.000000
vn 1.000000 0.000000 0.000000
vn 1.000000 0.000000 0.000000
vn 1.000000 0.000000 0.000000
vn 1.000000 0.000000 0.000000
vn 1.000000 0.000000 0.000000
vn 1.000000 0.000000 0.000000
vn 1.000000 0.000000 0.000000
s off
g pCube1
usemtl initialShadingGroup
f 34/48/1 35/49/2 36/50/3 37/51/4
f 2/54/5 3/55/6 8/56/7 7/57/8
f 3/55/9 4/58/10 9/59/11 8/56/12
f 4/58/13 5/62/14 10/63/15 9/59/16
f 37/51/17 36/50/18 38/52/19 39/53/20
f 7/57/21 8/56/22 13/60/23 12/61/24
f 8/56/25 9/59/26 14/64/27 13/60/28
f 9/59/29 10/63/30 15/65/31 14/64/32
f 11/23/33 12/24/34 31/25/35 17/26/36 16/27/37
f 12/24/38 13/30/39 18/31/40 17/26/41 31/25/42
f 13/30/43 14/32/44 19/33/45 18/31/46
f 14/32/47 15/34/48 20/35/49 19/33/50
f 17/66/51 18/67/52 23/68/53 22/69/54 32/70/55
f 18/67/56 19/71/57 24/72/58 23/68/59
f 19/71/60 20/77/61 25/78/62 24/72/63
f 22/69/64 23/68/65 28/73/66 27/74/67
f 23/68/68 24/72/69 29/79/70 28/73/71
f 24/72/72 25/78/73 30/81/74 29/79/75
f 26/36/76 27/37/77 2/38/78 1/39/79
f 27/37/80 28/40/81 3/41/82 2/38/83
f 28/40/84 29/44/85 4/45/86 3/41/87
f 29/44/88 30/46/89 5/47/90 4/45/91
f 5/1/92 30/2/93 25/3/94 10/4/95
f 10/4/96 25/3/97 20/5/98 15/6/99
f 26/7/100 1/8/101 6/9/102 21/10/103
f 21/10/104 6/9/105 11/13/106 16/14/107 33/15/108
f 34/42/109 1/39/110 2/38/111 35/43/112
f 38/28/113 12/24/114 11/23/115 39/29/116
f 16/75/117 17/66/118 32/70/119 33/76/120
f 33/76/121 32/70/122 27/74/123 26/80/124
f 39/16/125 11/13/126 6/9/127 37/11/128
f 37/11/129 6/9/130 1/8/131 34/12/132
f 12/17/133 38/18/134 36/19/135 7/20/136
f 7/20/137 36/19/138 35/21/139 2/22/140
