# This file uses centimeters as units for non-parametric coordinates.

mtllib OneToTwoOBJ.mtl
g default
v 0.019774 -0.050000 -0.020059
v 2.019774 -0.050000 -0.020059
v 0.019774 0.000000 -0.020059
v 2.019774 0.000000 -0.020059
v 0.019774 0.050000 -0.020059
v 2.019774 0.050000 -0.020059
v 0.019774 0.050000 -1.020059
v 2.019774 0.050000 -1.020059
v 0.019774 0.000000 -1.020059
v 2.019774 0.000000 -1.020059
v 0.019774 -0.050000 -1.020059
v 2.019774 -0.050000 -1.020059
vt 0.816889 0.932145
vt 0.816889 0.633502
vt 0.831821 0.633502
vt 0.831821 0.932145
vt 0.846753 0.633502
vt 0.846753 0.932145
vt 0.753720 0.927173
vt 0.753720 0.650487
vt 0.767554 0.650487
vt 0.767554 0.927173
vt 0.781388 0.650487
vt 0.781388 0.927173
vt 0.081413 0.616603
vt 0.081413 0.019317
vt 0.380057 0.019317
vt 0.380057 0.616603
vt 0.489779 0.616603
vt 0.489779 0.019317
vt 0.788422 0.019317
vt 0.788422 0.616603
vt 0.018239 0.616603
vt 0.018239 0.019317
vt 0.033357 0.020852
vt 0.033357 0.603253
vt 0.047917 0.020852
vt 0.047917 0.603253
vt 0.419430 0.616603
vt 0.419430 0.019317
vt 0.434362 0.019317
vt 0.434362 0.616603
vt 0.449295 0.019317
vt 0.449295 0.616603
vn 0.000000 0.000000 1.000000
vn 0.000000 0.000000 1.000000
vn 0.000000 -0.000002 1.000000
vn 0.000000 -0.000002 1.000000
vn 0.000000 -0.000002 1.000000
vn 0.000000 -0.000002 1.000000
vn 0.000000 -0.000005 1.000000
vn 0.000000 -0.000005 1.000000
vn 0.000000 1.000000 0.000000
vn 0.000000 1.000000 0.000000
vn 0.000000 1.000000 0.000000
vn 0.000000 1.000000 0.000000
vn 0.000000 0.000005 -1.000000
vn 0.000000 0.000005 -1.000000
vn 0.000000 0.000002 -1.000000
vn 0.000000 0.000002 -1.000000
vn 0.000000 0.000002 -1.000000
vn 0.000000 0.000002 -1.000000
vn 0.000000 0.000000 -1.000000
vn 0.000000 0.000000 -1.000000
vn 0.000000 -1.000000 0.000000
vn 0.000000 -1.000000 0.000000
vn 0.000000 -1.000000 0.000000
vn 0.000000 -1.000000 0.000000
vn 1.000000 0.000000 0.000000
vn 1.000000 0.000000 0.000000
vn 1.000000 0.000000 0.000000
vn 1.000000 0.000000 0.000000
vn 1.000000 0.000000 0.000000
vn 1.000000 0.000000 0.000000
vn 1.000000 0.000000 0.000000
vn 1.000000 0.000000 0.000000
vn -1.000000 0.000000 0.000000
vn -1.000000 0.000000 0.000000
vn -1.000000 0.000000 0.000000
vn -1.000000 0.000000 0.000000
vn -1.000000 0.000000 0.000000
vn -1.000000 0.000000 0.000000
vn -1.000000 0.000000 0.000000
vn -1.000000 0.000000 0.000000
s off
g Frozen_OnetoTwo:pCube1
usemtl initialShadingGroup
f 1/21/1 2/22/2 4/23/3 3/24/4
f 3/24/5 4/23/6 6/25/7 5/26/8
f 5/13/9 6/14/10 8/15/11 7/16/12
f 7/27/13 8/28/14 10/29/15 9/30/16
f 9/30/17 10/29/18 12/31/19 11/32/20
f 11/17/21 12/18/22 2/19/23 1/20/24
f 2/1/25 12/2/26 10/3/27 4/4/28
f 4/4/29 10/3/30 8/5/31 6/6/32
f 11/7/33 1/8/34 3/9/35 9/10/36
f 9/10/37 3/9/38 5/11/39 7/12/40
