# This file uses centimeters as units for non-parametric coordinates.

mtllib One_to_ThreeOBJ.mtl
g default
v -1.500000 -0.050000 0.500000
v 1.500000 -0.050000 0.500000
v -1.500000 0.000000 0.500000
v 1.500000 0.000000 0.500000
v -1.500000 0.050000 0.500000
v 1.500000 0.050000 0.500000
v -1.500000 0.050000 -0.500000
v 1.500000 0.050000 -0.500000
v -1.500000 0.000000 -0.500000
v 1.500000 0.000000 -0.500000
v -1.500000 -0.050000 -0.500000
v 1.500000 -0.050000 -0.500000
vt 0.503306 0.606749
vt 0.703929 0.606749
vt 0.703929 0.707061
vt 0.503306 0.707061
vt 0.703929 0.807372
vt 0.503306 0.807372
vt 0.710279 0.606749
vt 0.910902 0.606749
vt 0.910902 0.707061
vt 0.710279 0.707061
vt 0.910902 0.807372
vt 0.710279 0.807372
vt 0.289935 0.179168
vt 0.910278 0.179386
vt 0.909611 0.378054
vt 0.289268 0.377837
vt 0.288519 0.392524
vt 0.906871 0.392524
vt 0.906871 0.593148
vt 0.288519 0.593148
vt 0.078478 0.606323
vt 0.279101 0.606323
vt 0.279101 0.706634
vt 0.078478 0.706634
vt 0.279101 0.806946
vt 0.078478 0.806946
vt 0.492879 0.806570
vt 0.292260 0.807745
vt 0.291672 0.707435
vt 0.492292 0.706260
vt 0.291085 0.607125
vt 0.491705 0.605950
vn 0.000000 0.000000 1.000000
vn 0.000000 0.000000 1.000000
vn 0.000000 0.000000 1.000000
vn 0.000000 0.000000 1.000000
vn 0.000000 0.000000 1.000000
vn 0.000000 0.000000 1.000000
vn 0.000000 0.000000 1.000000
vn 0.000000 0.000000 1.000000
vn 0.000000 1.000000 0.000000
vn 0.000000 1.000000 0.000000
vn 0.000000 1.000000 0.000000
vn 0.000000 1.000000 0.000000
vn 0.000000 0.000000 -1.000000
vn 0.000000 0.000000 -1.000000
vn 0.000000 0.000000 -1.000000
vn 0.000000 0.000000 -1.000000
vn 0.000000 0.000000 -1.000000
vn 0.000000 0.000000 -1.000000
vn 0.000000 0.000000 -1.000000
vn 0.000000 0.000000 -1.000000
vn 0.000000 -1.000000 0.000000
vn 0.000000 -1.000000 0.000000
vn 0.000000 -1.000000 0.000000
vn 0.000000 -1.000000 0.000000
vn 1.000000 0.000000 0.000000
vn 1.000000 0.000000 0.000000
vn 1.000000 0.000000 0.000000
vn 1.000000 0.000000 0.000000
vn 1.000000 0.000000 0.000000
vn 1.000000 0.000000 0.000000
vn 1.000000 0.000000 0.000000
vn 1.000000 0.000000 0.000000
vn -1.000000 0.000000 0.000000
vn -1.000000 0.000000 0.000000
vn -1.000000 0.000000 0.000000
vn -1.000000 0.000000 0.000000
vn -1.000000 0.000000 0.000000
vn -1.000000 0.000000 0.000000
vn -1.000000 0.000000 0.000000
vn -1.000000 0.000000 0.000000
s off
g pCube1
usemtl initialShadingGroup
f 1/21/1 2/22/2 4/23/3 3/24/4
f 3/24/5 4/23/6 6/25/7 5/26/8
f 5/13/9 6/14/10 8/15/11 7/16/12
f 7/27/13 8/28/14 10/29/15 9/30/16
f 9/30/17 10/29/18 12/31/19 11/32/20
f 11/17/21 12/18/22 2/19/23 1/20/24
f 2/1/25 12/2/26 10/3/27 4/4/28
f 4/4/29 10/3/30 8/5/31 6/6/32
f 11/7/33 1/8/34 3/9/35 9/10/36
f 9/10/37 3/9/38 5/11/39 7/12/40
